<svg xmlns="http://www.w3.org/2000/svg" viewBox="229 206 215 157">
  <polygon fill="#3d7a35" stroke="#010202" stroke-width="2.71" stroke-linejoin="round" stroke-miterlimit="10"
    points="294,229 269.9,263.8 261.3,283.2 257.1,293.2 252.2,304.2 246.3,303.6 239.4,316.4
            249.2,320.4 257.5,319.8 264.6,315.1 269.3,307.4 271,302.1 274.6,295 283.4,294.4
            292.2,293.3 300.5,295 305.2,299.2 311.7,305 291.7,343.9 319.4,352.2 336.4,327
            341.9,324 334.6,328.4 330.3,336.6 319.5,352.1 341.9,352.1 346.6,326.2 364,324.6
            384.9,316.7 363.7,324.6 363.5,353.2 391.4,352.3 396.7,328.5 412.6,308.5 396.1,330.5
            391.4,352.9 412,353.2 411.2,310.8 414.9,306.1 434.3,327.9 420.8,289.9 421.2,269.9
            392.6,236.3 360.2,235.6 347,235.6 347,226.7 313.7,216.9 306.6,220.7"/>
  <polyline fill="none" stroke="#010202" stroke-width="2.71" stroke-linejoin="round" stroke-miterlimit="10"
    points="346.7,234.4 353.8,255 355,263.8 355.6,268 354.9,276.7 351.8,285.4 348.9,289.6 344.9,293.6 338.4,294.2 333.2,292.5 327.9,288.3 319.3,274.3"/>
  <polyline fill="none" stroke="#010202" stroke-width="2.71" stroke-linejoin="round" stroke-miterlimit="10"
    points="282,294.4 295.5,292 304.2,288.3 311.7,280.2"/>
  <path fill="#010202" stroke="#010202" stroke-width="1" stroke-miterlimit="10"
    d="M305.8,251c2.7,0.4,4.7,3.3,4.7,6.3c0,3.1-2,5.4-4.7,5.1c-2.7-0.4-4.7-3.3-4.7-6.4C301.1,252.8,303.1,250.7,305.8,251z"/>
</svg>
