<?xml version="1.0" encoding="utf-8"?>
<!-- Generator: Adobe Illustrator 20.1.0, SVG Export Plug-In . SVG Version: 6.00 Build 0)  -->
<svg version="1.1" id="Livello_1" xmlns="http://www.w3.org/2000/svg" xmlns:xlink="http://www.w3.org/1999/xlink" x="0px" y="0px"
	 viewBox="0 0 680.3 680.3" style="enable-background:new 0 0 680.3 680.3;" xml:space="preserve">
<style type="text/css">
	.st0{fill:#010202;}
	.st1{fill:none;stroke:#010202;stroke-width:1.8689;stroke-linejoin:round;stroke-miterlimit:10;}
	.st2{fill:#E30D18;stroke:#010202;stroke-width:2.7102;stroke-linejoin:round;stroke-miterlimit:10;}
	.st3{fill:none;stroke:#010202;stroke-width:2.7099;stroke-linejoin:round;stroke-miterlimit:10;}
	.st4{fill:none;stroke:#010202;stroke-width:2.7102;stroke-linejoin:round;stroke-miterlimit:10;}
	.st5{fill:#010202;stroke:#010202;stroke-width:1.0001;stroke-miterlimit:10;}
</style>
<path class="st0" d="M406.6,408.7v-7.9l6.5-0.3c-0.1-3-0.5-4.7-1.2-7.1c-1.1-3.8-2.8-5.5-5.1-5.2c-0.1,0-0.1,0.1-0.2,0.1v-5.5
	c0.3,0,0.6,0,0.9,0.1c3.2,0.2,6.1,2.6,8.6,7.5c2,4,3.1,9.9,3.1,17.8c0,1.8-0.1,3.7-0.1,5.7l-5.7,2l-0.2-7.5L406.6,408.7L406.6,408.7
	z M422.9,383.6l19.2-1.5l-1.4,5.8l-5.4,0.5l-1.2,21.4l7.9-0.6l-1.4,5.8l-19.2,1.6l1.5-5.9l6.5-0.5l-0.5-21.2l-7.4,0.5L422.9,383.6z
	 M406.6,382.7v5.5c-2.1,0.4-3.8,2.3-4.9,5.9c-0.9,2.6-1.3,3.9-1.5,6.8l6.4-0.2v7.9l-6.7,0.3l1.1,6.8l-6.8,0.1l0.1-7.3l-3,0.3
	l0.5-7.6h2.7c-0.1-4.6,0.8-7.4,2.8-11.4C399.7,385.2,402.7,382.9,406.6,382.7L406.6,382.7z M290.9,409.1v-7.9l6.4-0.2
	c-0.1-3-0.4-4.7-1.2-7.1c-1.1-3.8-2.8-5.5-5.2-5.2c-0.1,0-0.1,0-0.1,0.1v-5.5c0.3,0,0.6,0,0.9,0c3.3,0.2,6.2,2.7,8.7,7.5
	c2,3.9,3.1,9.9,3.1,17.8c0,1.8-0.1,3.7-0.2,5.7l-5.7,2l-0.2-7.5L290.9,409.1L290.9,409.1z M308.1,383.6l19.2-1.5l-1.5,5.8l-5.4,0.5
	l-1.2,21.4l8-0.6l-1.5,5.8l-19.2,1.6l1.5-5.9l6.5-0.5l-0.6-21.2l-7.4,0.5L308.1,383.6L308.1,383.6z M339.6,383.4l24.6-0.5l-1.3,8.5
	l-8.9,0.3l0.2,24.2l-6.6,0.2l0.5-24.6h-9.8L339.6,383.4L339.6,383.4z M367.4,383.6l7.1-0.5l-0.5,15.4H384v-14.9h6.5l-1.1,32.7
	l-4.9-0.4l0.4-10.6l-11.5,0.1l0.3,10.6l-5.7,0.6l0.8-10.9l-3.9,0.2l0.8-7.4h2.5L367.4,383.6z M256.9,404.4l9-20.7l8.4,0.6l-0.5,30.7
	l-8.5,0.4l1.9-19.8l-8.5,17.8l-3.7-0.2l-7.6-16.9L249,415l-7.6,1.5l0.1-28.7l-2.1-3L250,383C252.8,388.6,253.7,398.3,256.9,404.4
	L256.9,404.4z M290.9,383.1v5.5c-2.1,0.3-3.8,2.3-4.9,5.9c-0.9,2.5-1.3,3.9-1.5,6.8l6.4-0.3v7.9l-6.7,0.3l1.1,6.8l-6.8,0.1l0.1-7.3
	l-3,0.3l0.4-7.7h2.8c-0.1-4.6,0.8-7.4,2.8-11.4C284,385.6,287,383.2,290.9,383.1z"/>
<g>
	<g>
		<g>
			<path class="st0" d="M404.4,353.1v-33.7l8.2-10.8l-8.2,10.2v-68.4l16.7,19.6l-0.4,20l13.5,37.9l-19.4-21.8l-3.7,4.7l0.8,42.4
				L404.4,353.1z M404.4,250.3v68.4l-7.7,9.8l-0.5,1.8l8.2-11V353l-9.4-0.1V336l1.2-5.8l-0.1,0.2l-1.1,5.2v-96.5L404.4,250.3z
				 M395,239.2v96.5l-1.3,6l1.3-5.7v16.9h-3.6l2.3-11.2l-2.3,10.6l-17.1,0.5v-32l10.6-4.1l-10.6,4V236l18.3,0.4L395,239.2z
				 M374.3,236v84.7l-10.6,4l0,0h0.2l10.4-3.9v32l-10.8,0.4l0.2-28.6l-17.1,1.6l-4.7,25.9h-3v-26.3l3-1.8l-3,1.6V224.3l8.1,2.4v8.9
				h13.3L374.3,236z M334,329.6l0.6-1.2l1.4-0.7l-2,3v21.4h4.9v-26.3l-2.9,1.8l0.4-0.6l2.5-1.4V224.3l-4.9-1.4V329.6z M331.9,333.7
				l2-4.1V222.8l-20.2-5.9l-7.1,3.7l-12.6,8.3l-24.1,34.8l-8.6,19.4l-4.2,10l-4.9,11l-5.9-0.6l-6.9,12.9l9.8,4l8.3-0.6l7.1-4.7
				l4.7-7.7l1.7-5.3l3.6-7.1l8.8-0.6l8.8-1.1l8.3,1.7l4.7,4.2l6.5,5.8l-20,38.9l27.7,8.3L331.9,333.7l-1.6,2.9l-10.8,15.5H334v-21.4
				L331.9,333.7z"/>
			<path class="st1" d="M331.9,333.7l2.7-5.3l1.4-0.7L331.9,333.7L331.9,333.7z M336,327.6l0.4-0.6l5.5-3L336,327.6L336,327.6z
				 M331.9,333.7l-1.6,2.9l-10.8,15.5h22.4l4.7-25.9l17.1-1.6l-0.2,28.6l27.9-0.8l2.3-10.6l-2.3,11.2l20.6,0.2l-0.8-42.4l3.7-4.7
				l19.4,21.8L420.8,290l0.4-20l-28.6-33.6l-32.4-0.7H347v-8.9l-33.2-9.8l-7.1,3.7l-12.6,8.3L270,263.8l-8.6,19.4l-4.2,10l-4.9,11
				l-5.9-0.6l-6.9,12.9l9.8,4l8.3-0.6l7.1-4.7l4.7-7.7l1.7-5.3l3.6-7.1l8.8-0.6l8.8-1.1l8.3,1.7l4.7,4.2l6.5,5.8l-20,38.9l27.7,8.3
				L331.9,333.7L331.9,333.7z M363.7,324.6L363.7,324.6l21.2-8l-21,8H363.7L363.7,324.6z M393.7,341.7l2.4-11.2l0.1-0.2L393.7,341.7
				L393.7,341.7z M396.2,330.3l0.5-1.8l15.9-20L396.2,330.3z"/>
		</g>
	</g>
	<polygon class="st2" points="294,229 269.9,263.8 261.3,283.2 257.1,293.2 252.2,304.2 246.3,303.6 239.4,316.4 249.2,320.4 
		257.5,319.8 264.6,315.1 269.3,307.4 271,302.1 274.6,295 283.4,294.4 292.2,293.3 300.5,295 305.2,299.2 311.7,305 291.7,343.9 
		319.4,352.2 336.4,327 341.9,324 334.6,328.4 330.3,336.6 319.5,352.1 341.9,352.1 346.6,326.2 364,324.6 384.9,316.7 363.7,324.6 
		363.5,353.2 391.4,352.3 396.7,328.5 412.6,308.5 396.1,330.5 391.4,352.9 412,353.2 411.2,310.8 414.9,306.1 434.3,327.9 
		420.8,289.9 421.2,269.9 392.6,236.3 360.2,235.6 347,235.6 347,226.7 313.7,216.9 306.6,220.7 	"/>
	<polyline class="st3" points="346.7,234.4 353.8,255 355,263.8 355.6,268 354.9,276.7 351.8,285.4 348.9,289.6 344.9,293.6 
		338.4,294.2 333.2,292.5 327.9,288.3 319.3,274.3 	"/>
	<polyline class="st4" points="282,294.4 295.5,292 304.2,288.3 311.7,280.2 	"/>
	<path class="st5" d="M305.8,251c2.7,0.4,4.7,3.3,4.7,6.3c0,3.1-2,5.4-4.7,5.1c-2.7-0.4-4.7-3.3-4.7-6.4
		C301.1,252.8,303.1,250.7,305.8,251z"/>
</g>
</svg>
